<?xml version="1.0" encoding="iso-8859-1"?>
<!-- Generator: Adobe Illustrator 18.0.0, SVG Export Plug-In . SVG Version: 6.00 Build 0)  -->
<!DOCTYPE svg PUBLIC "-//W3C//DTD SVG 1.1//EN" "http://www.w3.org/Graphics/SVG/1.1/DTD/svg11.dtd">
<svg version="1.1" id="Capa_1" xmlns="http://www.w3.org/2000/svg" xmlns:xlink="http://www.w3.org/1999/xlink" x="0px" y="0px"
	 viewBox="0 0 156.994 156.994" style="enable-background:new 0 0 156.994 156.994;" xml:space="preserve">
<g>
	<path style="fill:#FDD633;" d="M156.994,83.408c-3.325-18.86-15.06-23.666-20.162-24.875c-0.438-1.276-0.904-2.539-1.42-3.776
		c5.149-9.013,18.526,1.507,18.526,1.507c-9.58-16.596-22.262-17.089-27.463-16.476c-0.841-1.041-1.713-2.058-2.619-3.04
		c1.737-10.261,17.928-4.943,17.928-4.943c-14.662-12.305-26.732-8.454-31.425-6.099c-1.147-0.694-2.325-1.34-3.521-1.959
		c-1.87-10.232,15.157-10.772,15.157-10.772c-17.992-6.551-28.02,1.206-31.618,5.022c-1.309-0.255-2.633-0.462-3.968-0.633
		C81.135,8.384,96.962,2.044,96.962,2.044c-6.947,0-12.258,1.414-16.313,3.442v21.169v0.055
		c27.632,1.13,49.689,23.878,49.689,51.786c0,27.91-22.057,50.656-49.689,51.786v0.055v18.479c-0.271,0.21-0.551,0.418-0.84,0.622
		c4.754-3.369,7.129-7.501,8.215-10.022c1.335-0.205,2.65-0.47,3.954-0.76c8.014,6.635-4.686,17.997-4.686,17.997
		c17.995-6.549,20.689-18.936,20.994-24.174c1.175-0.649,2.32-1.341,3.447-2.066c9.811,3.491,1.76,18.519,1.76,18.519
		c14.689-12.323,12.961-24.905,11.454-29.915c0.879-1.008,1.728-2.039,2.541-3.102c10.409-0.073,7.984,16.799,7.984,16.799
		c9.576-16.585,3.676-27.807,0.543-32.014c0.484-1.252,0.942-2.519,1.345-3.809c9.734-3.585,13.22,13.065,13.22,13.065
		c3.33-18.883-6.081-27.409-10.457-30.279c0.008-0.396,0.031-0.786,0.031-1.183c0-0.949-0.03-1.89-0.072-2.827
		C148.008,68.927,156.994,83.408,156.994,83.408z"/>
	<path style="fill:#FDD633;" d="M79.808,149.439c-0.279,0.199-0.568,0.395-0.864,0.587C79.24,149.833,79.529,149.638,79.808,149.439
		z"/>
	<path style="fill:#FDD633;" d="M71.005,153.555c-0.298,0.083-0.606,0.159-0.913,0.236
		C70.399,153.714,70.707,153.638,71.005,153.555z"/>
	<path style="fill:#FDD633;" d="M78.905,150.051c-0.283,0.184-0.576,0.363-0.874,0.54C78.329,150.414,78.621,150.234,78.905,150.051
		z"/>
	<path style="fill:#FDD633;" d="M63.508,154.826c-0.379,0.027-0.771,0.045-1.16,0.063C62.738,154.871,63.129,154.854,63.508,154.826
		z"/>
	<path style="fill:#FDD633;" d="M69.636,153.908c-0.299,0.07-0.608,0.133-0.916,0.197C69.027,154.04,69.337,153.978,69.636,153.908z
		"/>
	<path style="fill:#FDD633;" d="M72.312,153.159c-0.297,0.097-0.604,0.188-0.912,0.277
		C71.707,153.347,72.014,153.256,72.312,153.159z"/>
	<path style="fill:#FDD633;" d="M70.86,14.086c0.156-0.236,0.319-0.477,0.492-0.72C71.179,13.61,71.016,13.849,70.86,14.086z"/>
	<path style="fill:#FDD633;" d="M69.939,15.608c0.256-0.463,0.546-0.948,0.874-1.449C70.486,14.659,70.195,15.146,69.939,15.608z"/>
	<path style="fill:#FDD633;" d="M66.706,154.47c-0.321,0.049-0.653,0.089-0.983,0.13C66.053,154.559,66.385,154.519,66.706,154.47z"
		/>
	<path style="fill:#FDD633;" d="M69.599,16.246c0.094-0.184,0.194-0.371,0.299-0.563C69.792,15.875,69.693,16.063,69.599,16.246z"/>
	<path style="fill:#FDD633;" d="M68.203,154.213c-0.307,0.06-0.625,0.11-0.941,0.163C67.578,154.324,67.896,154.273,68.203,154.213z
		"/>
	<path style="fill:#FDD633;" d="M74.741,152.251c-0.292,0.124-0.593,0.242-0.896,0.359
		C74.148,152.493,74.449,152.375,74.741,152.251z"/>
	<path style="fill:#FDD633;" d="M73.555,152.724c-0.293,0.11-0.598,0.215-0.902,0.317C72.957,152.939,73.261,152.834,73.555,152.724
		z"/>
	<path style="fill:#FDD633;" d="M76.935,151.207c-0.289,0.153-0.588,0.303-0.892,0.45C76.347,151.51,76.646,151.361,76.935,151.207z
		"/>
	<path style="fill:#FDD633;" d="M77.947,150.642c-0.286,0.168-0.581,0.332-0.882,0.494C77.366,150.974,77.661,150.81,77.947,150.642
		z"/>
	<path style="fill:#FDD633;" d="M80.645,5.488c-4.44,2.222-7.369,5.178-9.264,7.836C73.278,10.668,76.206,7.709,80.645,5.488z"/>
	<path style="fill:#FDD633;" d="M68.969,17.574c0.075-0.175,0.159-0.359,0.247-0.549C69.128,17.215,69.044,17.4,68.969,17.574z"/>
	<path style="fill:#FDD633;" d="M65.142,154.676c-0.339,0.037-0.689,0.066-1.037,0.096
		C64.453,154.742,64.803,154.713,65.142,154.676z"/>
	<path style="fill:#FDD633;" d="M61.806,154.919c-0.58,0.02-1.17,0.031-1.774,0.031C60.635,154.95,61.226,154.94,61.806,154.919z"/>
	<path style="fill:#FDD633;" d="M69.291,16.868c0.07-0.147,0.144-0.298,0.221-0.453C69.435,16.571,69.361,16.721,69.291,16.868z"/>
	<path style="fill:#FDD633;" d="M75.867,151.744c-0.292,0.139-0.593,0.273-0.897,0.405
		C75.274,152.018,75.575,151.883,75.867,151.744z"/>
	<path style="fill:#F4CA19;" d="M80.649,130.337L80.649,130.337c-0.369,0-0.732-0.02-1.099-0.026
		c-0.352,0.007-0.7,0.026-1.054,0.026c-28.631,0-51.842-23.209-51.842-51.841c0-28.63,23.211-51.841,51.842-51.841
		c0.354,0,0.702,0.02,1.054,0.026c0.366-0.007,0.729-0.026,1.098-0.026h0.001V5.487l0,0c-0.002,0.001-0.003,0.002-0.004,0.002
		c-4.438,2.221-7.367,5.18-9.264,7.836c-0.01,0.014-0.02,0.028-0.029,0.042c-0.173,0.243-0.336,0.483-0.492,0.72
		c-0.016,0.024-0.032,0.049-0.047,0.072c-0.327,0.501-0.617,0.986-0.874,1.449c-0.015,0.025-0.027,0.05-0.041,0.075
		c-0.105,0.192-0.205,0.38-0.299,0.563c-0.029,0.057-0.058,0.113-0.086,0.169c-0.078,0.155-0.151,0.306-0.221,0.453
		c-0.025,0.053-0.051,0.105-0.075,0.157c-0.088,0.189-0.172,0.374-0.247,0.549c-1.334,0.207-2.65,0.471-3.955,0.762
		c-8.01-6.635,4.686-17.997,4.686-17.997C51.709,6.888,49.012,19.275,48.707,24.51c-1.175,0.652-2.322,1.345-3.45,2.069
		C35.453,23.088,43.5,8.062,43.5,8.062c-14.685,12.322-12.96,24.902-11.454,29.914c-0.88,1.007-1.729,2.039-2.543,3.103
		c-10.406,0.073-7.983-16.799-7.983-16.799c-9.574,16.581-3.675,27.806-0.543,32.011c-0.484,1.254-0.943,2.521-1.346,3.813
		C9.898,63.687,6.413,47.036,6.413,47.036c-3.33,18.882,6.081,27.408,10.457,30.279c-0.008,0.394-0.03,0.783-0.03,1.181
		c0,0.949,0.028,1.892,0.072,2.831C8.985,88.067,0,73.588,0,73.588c3.324,18.858,15.059,23.664,20.162,24.873
		c0.438,1.276,0.905,2.541,1.421,3.778c-5.149,9.011-18.529-1.507-18.529-1.507c9.581,16.596,22.262,17.087,27.465,16.476
		c0.841,1.041,1.713,2.058,2.62,3.043c-1.737,10.26-17.93,4.943-17.93,4.943c14.663,12.303,26.735,8.451,31.426,6.097
		c1.147,0.692,2.326,1.339,3.52,1.957c1.872,10.232-15.158,10.775-15.158,10.775c17.995,6.551,28.024-1.21,31.622-5.025
		c1.307,0.256,2.631,0.462,3.966,0.633c5.277,8.981-10.554,15.319-10.554,15.319c0.604,0,1.195-0.011,1.774-0.031
		c0.185-0.007,0.36-0.021,0.543-0.029c0.39-0.019,0.781-0.036,1.16-0.063c0.203-0.015,0.397-0.037,0.597-0.055
		c0.348-0.03,0.698-0.059,1.037-0.096c0.198-0.022,0.387-0.052,0.581-0.076c0.33-0.041,0.663-0.081,0.983-0.13
		c0.189-0.028,0.369-0.063,0.555-0.094c0.316-0.053,0.634-0.104,0.941-0.163c0.176-0.033,0.344-0.073,0.517-0.108
		c0.308-0.064,0.618-0.127,0.916-0.197c0.155-0.037,0.304-0.078,0.457-0.116c0.307-0.077,0.615-0.153,0.913-0.236
		c0.134-0.038,0.262-0.079,0.395-0.118c0.308-0.09,0.614-0.181,0.912-0.277c0.116-0.038,0.226-0.079,0.341-0.118
		c0.305-0.103,0.609-0.207,0.902-0.317c0.099-0.036,0.192-0.076,0.29-0.113c0.304-0.117,0.605-0.235,0.896-0.359
		c0.078-0.033,0.152-0.068,0.229-0.102c0.304-0.132,0.606-0.267,0.897-0.405c0.06-0.028,0.117-0.059,0.176-0.087
		c0.303-0.148,0.602-0.297,0.892-0.45c0.044-0.023,0.086-0.048,0.13-0.071c0.301-0.162,0.596-0.326,0.882-0.494
		c0.028-0.017,0.055-0.034,0.084-0.051c0.299-0.177,0.591-0.356,0.874-0.54c0.013-0.009,0.025-0.018,0.039-0.025
		c0.296-0.192,0.585-0.388,0.864-0.587c0,0,0,0,0,0c0.289-0.204,0.569-0.412,0.84-0.622V130.337z"/>
	<path style="fill:#F2AB0C;" d="M130.337,78.496c0-27.908-22.057-50.656-49.689-51.786v103.572
		C108.281,129.153,130.337,106.407,130.337,78.496z"/>
	<path style="fill:#F2AB0C;" d="M26.654,78.496c0,28.632,23.211,51.841,51.842,51.841c0.354,0,0.702-0.02,1.054-0.026
		C50.24,129.747,26.654,106.775,26.654,78.496z"/>
	<path style="fill:#F2AB0C;" d="M79.55,26.682c-0.352-0.007-0.7-0.026-1.054-0.026c-28.631,0-51.842,23.211-51.842,51.841
		C26.654,50.22,50.24,27.245,79.55,26.682z"/>
	<path style="fill:#F4940B;" d="M79.55,26.682C50.24,27.245,26.654,50.22,26.654,78.496c0,28.278,23.585,51.251,52.896,51.814
		c0.366,0.007,0.729,0.026,1.098,0.026h0.001v-0.055V26.71v-0.055h-0.001C80.28,26.655,79.916,26.675,79.55,26.682z"/>
</g>
<g>
</g>
<g>
</g>
<g>
</g>
<g>
</g>
<g>
</g>
<g>
</g>
<g>
</g>
<g>
</g>
<g>
</g>
<g>
</g>
<g>
</g>
<g>
</g>
<g>
</g>
<g>
</g>
<g>
</g>
</svg>
